<?xml version="1.0" standalone="no"?>
<!DOCTYPE svg PUBLIC "-//W3C//DTD SVG 20010904//EN"
 "http://www.w3.org/TR/2001/REC-SVG-20010904/DTD/svg10.dtd">
<svg version="1.0" xmlns="http://www.w3.org/2000/svg"
 width="256.000000pt" height="256.000000pt" viewBox="0 0 256.000000 256.000000"
 preserveAspectRatio="xMidYMid meet">

<g transform="translate(0.000000,256.000000) scale(0.100000,-0.100000)"
fill="#000000" stroke="none">
<path d="M1177 2220 c-201 -25 -378 -118 -530 -280 -68 -72 -97 -114 -67 -95
5 3 19 1 31 -6 18 -9 24 -8 31 5 5 9 22 16 38 16 23 0 33 -7 45 -30 15 -29 15
-33 -5 -60 -40 -56 18 -98 82 -61 18 11 53 25 78 30 38 9 49 8 70 -7 20 -14
36 -16 75 -11 28 4 79 8 115 8 68 1 83 6 93 31 4 12 6 11 6 -2 1 -26 31 -23
156 17 127 40 115 37 115 27 0 -4 -41 -19 -90 -32 -50 -13 -84 -27 -78 -31 23
-11 227 -18 225 -7 -2 11 84 46 115 47 10 1 18 -8 20 -21 2 -13 11 -24 21 -26
14 -3 17 4 17 33 0 22 4 34 10 30 6 -3 10 -23 10 -44 0 -27 7 -44 25 -61 l25
-23 0 26 c0 19 4 25 14 21 20 -8 35 25 25 56 -4 14 -7 21 -8 16 -1 -5 -8 -3
-16 4 -13 11 -13 15 -3 21 10 7 8 9 -5 9 -10 0 -48 24 -85 54 -37 29 -101 70
-142 91 -41 21 -77 39 -80 42 -3 3 6 13 19 24 29 24 106 27 97 4 -4 -13 -1
-12 20 2 25 16 27 15 97 -34 40 -27 78 -60 84 -74 7 -13 13 -20 13 -15 0 5 9
1 19 -8 16 -15 17 -22 8 -52 -6 -18 -14 -34 -19 -34 -4 0 -8 -4 -8 -10 0 -22
19 -8 35 27 l17 36 18 -23 c14 -19 20 -21 39 -11 12 7 26 9 31 6 28 -17 3 21
-57 85 -202 218 -473 323 -746 290z m302 -90 c66 -17 80 -71 29 -104 -19 -12
-33 -13 -73 -4 -27 5 -60 12 -71 14 -23 4 -42 36 -26 42 5 1 -4 17 -19 33 -16
17 -27 34 -25 38 6 9 129 -4 185 -19z m-229 12 c0 -4 -6 -14 -12 -21 -11 -11
-9 -11 9 -2 18 9 25 7 42 -16 20 -24 20 -27 5 -45 -11 -11 -31 -18 -53 -18
-36 0 -151 -22 -183 -35 -32 -13 -20 17 24 57 23 21 38 41 35 45 -4 3 -7 2 -7
-3 0 -5 -14 -18 -30 -27 -17 -10 -37 -31 -45 -48 -14 -25 -21 -29 -59 -29 -49
0 -71 18 -61 50 9 29 100 69 195 85 19 3 36 8 39 11 8 8 101 4 101 -4z m346
-52 c23 -9 25 -13 14 -20 -26 -16 -57 -11 -63 9 -5 21 1 33 13 26 4 -2 20 -9
36 -15z m-706 -69 c14 -27 13 -41 -5 -41 -10 0 -15 -10 -15 -31 0 -24 -10 -41
-47 -75 -52 -48 -81 -55 -101 -24 -7 11 -19 20 -27 20 -8 0 -15 4 -15 8 0 20
168 162 191 162 5 0 13 -9 19 -19z m87 -45 c1 -1 -20 -14 -48 -29 l-49 -28 0
25 c0 16 6 26 15 26 8 0 15 4 15 10 0 7 55 4 67 -4z m485 -12 c32 -9 58 -19
58 -23 0 -3 -54 -25 -120 -48 l-120 -42 -120 41 c-66 23 -120 46 -120 50 0 4
16 10 35 14 28 5 57 -2 130 -29 l95 -36 67 25 c38 14 70 27 72 29 2 2 -12 11
-30 19 -46 20 -18 20 53 0z m78 -84 c-8 -5 -22 -9 -30 -9 -10 0 -8 3 5 9 27
12 43 12 25 0z m-440 -82 c11 -4 9 -8 -9 -15 -22 -9 -94 9 -220 53 -11 4 -10
7 4 18 18 13 72 -1 225 -56z m584 54 c2 -4 -22 -15 -55 -23 -70 -19 -80 -7
-11 14 59 19 60 19 66 9z"/>
<path d="M535 1817 c-52 -20 -86 -49 -197 -165 -16 -16 -23 -37 -24 -70 -1
-25 -7 -48 -13 -50 -16 -5 -13 -58 4 -72 8 -6 19 -9 24 -6 6 4 17 -6 25 -21
19 -37 52 -66 68 -60 7 2 20 -2 29 -10 25 -21 112 -25 192 -8 39 8 72 13 73
12 2 -2 7 -31 11 -67 8 -62 9 -64 51 -86 23 -12 56 -34 73 -48 30 -25 48 -32
99 -38 18 -2 27 -12 34 -37 6 -19 29 -55 53 -80 36 -38 43 -51 43 -86 0 -45
-22 -85 -47 -85 -15 0 -15 1 -1 13 25 20 52 117 28 102 -5 -3 -10 -1 -10 4 0
6 -16 31 -35 57 -19 25 -37 55 -41 68 -5 20 -10 21 -75 18 l-69 -4 0 36 c0 30
-5 38 -31 52 -20 10 -34 12 -38 6 -3 -6 -27 -8 -54 -5 -45 5 -47 7 -47 39 0
28 4 33 28 36 19 2 27 9 27 23 0 18 -8 20 -62 23 -35 2 -63 7 -63 12 0 13 -37
13 -45 0 -4 -6 -9 -8 -13 -6 -4 2 -7 -12 -7 -32 0 -32 -3 -37 -22 -36 -18 0
-20 -3 -12 -17 5 -10 9 -28 9 -41 0 -13 9 -38 20 -56 11 -18 20 -45 21 -60 l1
-27 8 25 c8 27 9 25 29 -37 8 -26 7 -33 -3 -33 -8 0 -19 7 -26 15 -7 9 -15 13
-18 11 -9 -9 -61 24 -66 42 -6 19 -25 155 -26 185 0 9 7 17 17 17 15 0 15 1
-1 13 -11 8 -16 23 -14 42 3 27 0 30 -26 33 l-29 4 6 -134 c3 -91 12 -158 27
-213 123 -452 551 -744 990 -675 291 46 533 235 671 523 56 117 80 219 86 370
l6 129 -29 -4 c-27 -3 -29 -6 -30 -51 -1 -26 -4 -51 -8 -55 -4 -4 -25 -7 -46
-8 -39 0 -39 0 -42 40 -2 34 -7 42 -25 44 -19 3 -23 -1 -23 -22 0 -22 -4 -26
-30 -26 -30 0 -41 -14 -17 -23 6 -3 -10 -6 -36 -6 -27 -1 -46 -5 -43 -9 3 -5
-13 -19 -34 -31 -22 -12 -40 -27 -40 -32 0 -6 -4 -8 -9 -4 -6 3 -13 0 -18 -7
-4 -7 -20 -19 -35 -27 -19 -10 -28 -22 -28 -38 0 -16 -6 -23 -20 -23 -11 0
-20 7 -20 15 0 31 -37 15 -55 -24 -9 -22 -32 -54 -51 -72 -28 -27 -34 -40 -34
-76 0 -31 6 -48 22 -63 12 -11 17 -20 11 -20 -19 0 -42 36 -49 78 -6 40 -4 45
38 90 25 27 51 65 57 85 11 34 16 37 50 37 27 0 50 10 88 38 28 20 64 44 80
53 28 15 31 23 38 84 5 52 10 65 21 61 59 -23 222 -28 248 -8 6 5 24 12 39 16
16 4 36 20 47 39 11 17 30 34 42 37 30 8 47 59 24 75 -11 8 -16 27 -16 58 0
39 -4 49 -25 63 -14 9 -25 25 -25 35 0 10 -9 23 -19 29 -11 5 -33 22 -49 37
-58 54 -112 83 -156 83 -31 0 -80 -55 -111 -123 -19 -42 -31 -57 -42 -53 -8 3
-19 6 -24 6 -5 0 -9 6 -9 14 0 16 -91 56 -128 56 -14 0 -33 -7 -43 -15 -14
-14 -29 -14 -100 -5 -106 13 -337 13 -453 0 -76 -9 -91 -8 -106 5 -9 8 -28 15
-42 15 -33 0 -114 -34 -125 -53 -4 -8 -19 -17 -33 -20 -23 -5 -27 -1 -49 50
-14 30 -39 70 -56 89 -35 36 -59 41 -110 21z m6 -41 c-14 -16 -51 -28 -51 -15
0 9 53 40 59 33 2 -2 -1 -10 -8 -18z m1514 -2 c9 -9 14 -18 12 -21 -7 -6 -57
19 -57 29 0 14 28 9 45 -8z m-1585 -38 c0 -7 -9 -16 -20 -19 -25 -6 -26 8 -2
22 22 13 22 13 22 -3z m1645 -2 c9 -9 14 -18 11 -21 -7 -7 -46 16 -46 27 0 15
17 12 35 -6z m-1583 -36 c-7 -7 -12 -8 -12 -2 0 14 12 26 19 19 2 -3 -1 -11
-7 -17z m1515 -45 c6 -2 14 8 16 24 3 15 4 1 3 -32 -1 -57 -2 -60 -25 -57 -14
1 -26 4 -28 6 -2 1 0 32 4 67 6 54 8 59 13 30 3 -19 10 -36 17 -38z m-609 46
c81 -6 149 -13 151 -15 13 -13 -23 -14 -158 -3 -119 10 -183 10 -302 0 -137
-11 -171 -10 -158 4 5 4 192 19 287 24 18 0 99 -4 180 -10z m-1033 -18 c-3 -6
-11 -11 -17 -11 -6 0 -6 6 2 15 14 17 26 13 15 -4z m100 -31 c8 0 18 7 23 16
7 13 11 2 16 -40 4 -32 5 -60 2 -64 -3 -3 -6 2 -6 12 0 12 -7 16 -22 14 -25
-3 -36 23 -36 82 1 29 2 30 5 8 2 -16 11 -28 18 -28z m1665 35 c14 -16 10 -18
-14 -9 -9 3 -16 10 -16 15 0 14 16 11 30 -6z m-1704 -117 c-15 -10 -36 -10
-36 1 0 5 -3 24 -6 42 -4 24 -3 30 4 20 15 -20 32 -4 33 32 1 18 5 6 9 -28 6
-42 4 -62 -4 -67z m1631 85 c-3 -10 -5 -4 -5 12 0 17 2 24 5 18 2 -7 2 -21 0
-30z m25 -85 c-5 -5 -16 -6 -26 -2 -24 9 -18 60 7 56 13 -2 17 5 19 30 1 18 3
9 5 -21 2 -30 0 -58 -5 -63z m-1709 30 c4 -39 1 -47 -14 -51 -15 -4 -19 0 -19
18 0 13 5 27 10 30 6 3 10 21 11 38 1 41 6 25 12 -35z m1150 46 c17 -4 27 -13
27 -25 0 -10 9 -23 19 -29 37 -19 51 -41 51 -79 0 -30 -17 -84 -35 -108 -1 -2
-43 -7 -93 -12 -75 -8 -99 -7 -127 5 -32 13 -35 18 -35 54 0 63 -42 91 -120
80 -33 -4 -60 -42 -60 -84 0 -38 -2 -42 -35 -52 -24 -8 -65 -8 -127 -3 -50 5
-92 10 -92 11 -48 98 -48 127 3 177 21 20 40 43 43 51 2 8 30 16 74 21 76 8
462 3 507 -7z m-783 -3 c0 -9 -94 -41 -121 -41 -23 0 2 15 54 32 64 20 67 20
67 9z m1076 -12 c43 -11 69 -29 41 -29 -28 0 -117 31 -117 41 0 6 7 8 16 5 9
-4 36 -11 60 -17z m301 -1 c-3 -8 -6 -5 -6 6 -1 11 2 17 5 13 3 -3 4 -12 1
-19z m19 -74 c-3 -8 -12 -11 -21 -8 -20 8 -20 54 0 54 9 0 16 10 17 28 1 15 3
7 5 -17 3 -24 2 -49 -1 -57z m-1821 66 c-3 -5 -11 -10 -16 -10 -6 0 -7 5 -4
10 3 6 11 10 16 10 6 0 7 -4 4 -10z m1860 0 c3 -5 1 -10 -4 -10 -6 0 -11 5
-11 10 0 6 2 10 4 10 3 0 8 -4 11 -10z m-1858 -87 c-5 -7 -13 -10 -18 -7 -12
7 -11 44 1 44 6 0 11 8 11 18 1 9 5 4 8 -13 4 -16 3 -36 -2 -42z m414 45 c2
-30 0 -47 -8 -78 -5 -20 -8 -14 -14 30 -4 30 -5 58 -3 62 10 16 24 7 25 -14z
m1041 -32 c-2 -25 -8 -43 -13 -40 -10 6 -12 77 -3 87 14 14 19 -3 16 -47z
m408 -2 c0 -31 -23 -28 -28 4 -2 15 2 22 12 22 11 0 16 -9 16 -26z m-1896 -45
c-3 -5 -10 -7 -15 -3 -5 3 -7 10 -3 15 3 5 10 7 15 3 5 -3 7 -10 3 -15z m1926
0 c0 -5 -4 -9 -10 -9 -5 0 -10 7 -10 16 0 8 5 12 10 9 6 -3 10 -10 10 -16z
m-570 -59 c-6 -12 -14 -20 -17 -17 -2 3 1 14 8 26 7 11 15 18 17 16 2 -2 -2
-13 -8 -25z m-786 4 c3 -8 2 -12 -4 -9 -6 3 -10 10 -10 16 0 14 7 11 14 -7z
m366 -20 c0 -14 -3 -14 -15 -4 -8 7 -15 14 -15 16 0 2 7 4 15 4 8 0 15 -7 15
-16z m-353 -36 c-3 -7 -5 -2 -5 12 0 14 2 19 5 13 2 -7 2 -19 0 -25z m-51 -2
c3 -13 4 -35 1 -47 -3 -19 -5 -17 -6 8 0 17 -5 35 -11 38 -13 8 -13 25 0 25 5
0 12 -11 16 -24z m869 7 c-4 -10 -11 -31 -15 -48 l-8 -30 -1 36 c-1 19 4 40
11 47 17 17 21 15 13 -5z m-734 -33 l24 -21 -32 15 c-17 9 -40 13 -49 9 -12
-4 -15 -3 -10 5 11 18 41 14 67 -8z m184 10 c-27 -12 -43 -12 -25 0 8 5 22 9
30 9 10 0 8 -3 -5 -9z m135 0 c0 -5 -5 -10 -11 -10 -5 0 -7 5 -4 10 3 6 8 10
11 10 2 0 4 -4 4 -10z m324 1 c4 -5 -3 -7 -13 -4 -10 3 -32 -3 -47 -12 l-29
-17 24 21 c24 22 56 28 65 12z m-581 -8 c-7 -2 -19 -2 -25 0 -7 3 -2 5 12 5
14 0 19 -2 13 -5z m40 -20 c-7 -2 -19 -2 -25 0 -7 3 -2 5 12 5 14 0 19 -2 13
-5z m217 -8 c0 -10 -10 -15 -30 -15 -20 0 -30 5 -30 15 0 10 10 15 30 15 20 0
30 -5 30 -15z m193 8 c-7 -2 -21 -2 -30 0 -10 3 -4 5 12 5 17 0 24 -2 18 -5z
m-343 -63 c-8 -5 -26 -9 -40 -9 -23 1 -23 2 5 9 43 11 52 11 35 0z m309 -6 c9
-8 -45 -2 -64 6 -14 7 -8 8 20 3 22 -3 42 -7 44 -9z m-90 2 c-10 -9 -69 -36
-69 -32 0 7 52 35 64 36 5 0 7 -2 5 -4z m67 -25 c-3 -5 -23 -12 -43 -15 -21
-4 -46 -9 -55 -12 -10 -3 -18 -1 -18 4 0 7 23 13 113 30 5 1 6 -2 3 -7z m-227
-17 c10 -9 -45 -3 -59 6 -11 7 -5 8 20 4 19 -4 37 -8 39 -10z m-670 -71 c1
-40 -11 -43 -28 -6 -10 21 -9 33 1 57 l12 30 7 -24 c4 -14 7 -40 8 -57z m406
57 c-11 -5 -27 -9 -35 -9 -13 -1 -13 0 0 9 8 5 24 9 35 9 l20 0 -20 -9z m1155
-16 c0 -22 -2 -25 -15 -14 -8 7 -15 19 -15 26 0 8 7 14 15 14 10 0 15 -10 15
-26z m-910 -5 c28 -16 -14 -11 -51 6 l-34 16 35 -7 c19 -3 42 -10 50 -15z
m226 12 c-6 -9 -86 -32 -108 -30 -7 1 12 9 42 19 65 21 73 23 66 11z m655 -23
c28 -32 30 -65 8 -124 -9 -26 -48 -38 -56 -18 -3 9 -12 12 -26 8 -18 -6 -19
-3 -13 27 3 19 9 52 12 74 3 22 7 46 10 53 6 22 38 13 65 -20z m-851 -34 c0
-2 -7 -4 -15 -4 -8 0 -15 4 -15 10 0 5 7 7 15 4 8 -4 15 -8 15 -10z m728 -1
c-5 -26 -85 -27 -91 -2 -5 17 1 19 45 19 41 0 49 -3 46 -17z m-603 -3 c-3 -5
-10 -10 -16 -10 -5 0 -9 5 -9 10 0 6 7 10 16 10 8 0 12 -4 9 -10z m402 -62
c-3 -8 -6 -5 -6 6 -1 11 2 17 5 13 3 -3 4 -12 1 -19z m-441 -3 c24 -12 26 -15
9 -15 -12 0 -26 5 -33 12 -9 9 -15 9 -24 0 -7 -7 -21 -12 -32 -12 -17 1 -15 4
9 15 39 17 38 17 71 0z m-131 -15 c3 -5 1 -10 -4 -10 -6 0 -11 5 -11 10 0 6 2
10 4 10 3 0 8 -4 11 -10z m562 -77 c-2 -16 -4 -5 -4 22 0 28 2 40 4 28 2 -13
2 -35 0 -50z m-490 41 c-3 -3 -12 -4 -19 -1 -8 3 -5 6 6 6 11 1 17 -2 13 -5z
m73 2 c0 -2 -7 -6 -15 -10 -8 -3 -15 -1 -15 4 0 6 7 10 15 10 8 0 15 -2 15 -4z
m704 -5 c3 -5 16 -7 27 -4 20 6 21 3 15 -23 -14 -56 -59 -146 -66 -132 -10 18
-22 147 -15 158 8 13 32 13 39 1z m-1518 -39 c15 -10 25 -65 14 -82 -7 -11
-11 -8 -19 13 -6 15 -15 38 -21 52 -10 26 2 34 26 17z m201 -24 c-3 -8 -6 -5
-6 6 -1 11 2 17 5 13 3 -3 4 -12 1 -19z m1267 7 c3 -8 2 -35 -3 -60 -5 -25 -5
-45 -1 -45 13 0 19 -42 9 -62 -14 -26 -21 -23 -50 23 l-27 42 27 58 c27 61 35
69 45 44z m-1359 -57 c31 -61 31 -68 -14 -127 l-18 -23 -27 47 c-25 42 -27 52
-21 106 6 54 9 60 29 57 14 -2 31 -21 51 -60z m224 22 c12 0 21 8 24 23 2 12
5 4 5 -18 0 -22 -2 -34 -5 -27 -2 6 -12 12 -22 12 -21 0 -41 19 -40 40 0 9 4
6 9 -7 5 -13 18 -23 29 -23z m164 13 c-7 -2 -19 -2 -25 0 -7 3 -2 5 12 5 14 0
19 -2 13 -5z m874 -9 c-3 -3 -12 -4 -19 -1 -8 3 -5 6 6 6 11 1 17 -2 13 -5z
m-1095 -26 c44 -41 245 -128 294 -128 18 0 17 -8 -6 -105 -10 -44 -18 -80 -17
-81 5 -3 57 -14 58 -12 0 2 6 44 12 93 l12 90 35 -3 c19 -1 37 -7 41 -13 5 -8
9 -8 13 0 4 6 23 11 42 11 40 0 43 -13 14 -70 -24 -46 -25 -66 -6 -111 32 -79
32 -79 -17 -79 -36 0 -46 4 -55 23 l-11 22 0 -22 c-1 -27 6 -27 -112 -7 -123
21 -130 25 -118 66 14 50 11 56 -11 21 -16 -27 -26 -33 -53 -33 -46 0 -101 38
-105 72 -2 15 4 40 13 57 25 48 10 36 -25 -20 l-31 -51 -27 17 c-15 10 -33 24
-39 33 -7 9 -13 12 -13 8 0 -4 -13 2 -30 14 -16 12 -30 26 -30 31 0 16 125
199 136 199 6 0 22 -10 36 -22z m1102 -74 c37 -52 65 -101 63 -108 -3 -7 -20
-20 -39 -30 -45 -22 -68 -37 -101 -63 -16 -13 -34 -23 -42 -23 -7 0 -30 34
-52 75 -21 41 -40 75 -43 75 -9 0 6 -112 18 -143 7 -16 12 -30 12 -33 0 -5
-64 -34 -74 -34 -2 0 -11 20 -19 45 -9 24 -30 64 -49 88 -31 41 -35 42 -65 34
-18 -6 -33 -16 -33 -24 0 -12 9 -13 40 -8 37 6 40 5 46 -22 3 -15 10 -44 15
-63 15 -60 12 -67 -28 -74 -21 -4 -52 -9 -70 -12 -50 -9 -66 16 -82 124 -15
106 -7 125 53 137 17 3 52 11 78 17 37 9 50 9 62 -1 14 -11 16 -11 16 5 0 13
18 28 57 47 l57 27 29 -27 29 -28 -7 41 c-6 36 -3 44 17 58 12 9 27 16 33 16
6 0 41 -43 79 -96z m-624 82 c0 -11 -19 -15 -25 -6 -3 5 1 10 9 10 9 0 16 -2
16 -4z m90 -343 c0 -9 -6 -7 -18 5 -11 9 -17 20 -16 23 2 4 -3 12 -11 19 -8 7
-15 18 -15 24 1 15 59 -56 60 -71z m-572 21 c15 -24 79 -54 115 -54 20 0 37
-5 37 -10 0 -6 12 -15 27 -21 l27 -10 -21 -21 -21 -21 -58 33 c-53 30 -164
108 -164 116 0 8 52 -3 58 -12z m1002 -20 c0 -4 -87 -64 -93 -64 -14 0 1 30
20 39 13 6 23 17 23 24 0 10 8 13 25 9 14 -2 25 -6 25 -8z m-136 -79 c-17 -26
-61 -46 -162 -74 -75 -20 -112 -13 -112 23 0 20 -1 20 -16 -3 -11 -16 -23 -21
-38 -17 -19 5 -20 4 -3 -8 28 -21 20 -26 -45 -26 -84 0 -190 19 -185 34 2 6
13 11 25 10 11 0 20 4 19 10 -1 5 3 10 10 11 6 0 15 3 19 8 14 14 87 7 106
-10 18 -16 18 -16 12 0 -4 13 -1 17 15 17 11 0 26 9 33 20 7 11 23 20 36 20
20 0 22 -4 16 -22 -6 -19 -5 -21 8 -11 8 7 28 10 50 7 42 -7 142 12 157 30 6
7 23 11 40 8 29 -4 29 -5 15 -27z m-554 -14 l45 -8 -39 -17 c-49 -22 -82 -15
-88 19 -4 21 -2 24 16 20 12 -3 41 -9 66 -14z m-97 -21 c6 -22 0 -25 -22 -11
-7 5 -10 14 -7 20 11 17 23 13 29 -9z m384 -56 c-3 -3 -12 -4 -19 -1 -8 3 -5
6 6 6 11 1 17 -2 13 -5z"/>
<path d="M1097 1639 c-90 -8 -113 -14 -83 -24 9 -3 23 -7 32 -10 9 -3 14 -8
11 -11 -3 -4 -19 -2 -36 4 -25 9 -32 7 -51 -13 -20 -22 -21 -23 -3 -28 10 -3
5 -5 -12 -4 -26 2 -30 -2 -30 -23 0 -21 7 -26 48 -38 44 -12 47 -15 47 -48 0
-29 3 -34 24 -34 13 0 31 -3 40 -6 13 -5 16 10 19 108 l3 113 2 -112 c1 -62 6
-113 11 -113 5 0 21 4 35 10 23 8 26 14 22 44 -3 28 1 40 25 63 24 24 28 36
29 81 0 48 -2 52 -22 51 -13 -1 -63 -5 -111 -10z"/>
<path d="M1240 1602 c0 -45 2 -50 26 -55 30 -5 37 6 32 59 -3 34 -6 39 -30 42
-27 3 -28 2 -28 -46z"/>
<path d="M1484 1603 c-4 -16 -18 -41 -31 -56 -18 -23 -23 -40 -23 -88 0 -33 4
-59 10 -59 6 0 10 25 10 55 0 30 5 55 10 55 6 0 10 -22 10 -49 l0 -49 48 -4
c86 -8 122 20 122 96 0 23 -9 40 -29 60 -16 15 -33 26 -38 24 -4 -1 -9 7 -11
20 -4 27 -22 30 -22 3 0 -10 -7 -21 -15 -25 -12 -4 -14 0 -9 19 5 19 2 25 -10
25 -9 0 -19 -12 -22 -27z m16 -48 c0 -2 -10 -10 -22 -16 -21 -11 -22 -11 -9 4
13 16 31 23 31 12z"/>
<path d="M940 1440 c0 -11 5 -20 10 -20 6 0 10 5 10 10 0 6 5 10 10 10 6 0 10
-7 10 -15 0 -8 5 -15 10 -15 6 0 10 11 10 25 0 21 -5 25 -30 25 -23 0 -30 -4
-30 -20z"/>
<path d="M691 831 c-60 -89 -60 -89 -40 -107 20 -18 21 -18 37 2 10 12 22 30
28 40 9 15 15 16 24 7 10 -9 8 -19 -10 -48 -22 -35 -22 -37 -4 -50 11 -8 22
-15 26 -15 5 0 101 157 116 190 1 4 -8 11 -22 18 -21 9 -25 7 -42 -24 -18 -32
-33 -42 -47 -28 -3 4 5 23 19 43 23 33 23 37 7 49 -9 6 -20 12 -25 12 -4 0
-34 -40 -67 -89z"/>
<path d="M850 753 c-23 -48 -39 -94 -38 -102 4 -21 66 -61 93 -61 13 0 27 6
33 13 12 14 75 187 70 192 -2 1 -12 5 -23 9 -17 5 -24 -5 -53 -79 -19 -47 -38
-85 -42 -85 -21 0 -18 22 10 90 17 40 30 78 30 85 0 11 -21 25 -36 25 -2 0
-22 -39 -44 -87z"/>
<path d="M1007 676 c-15 -57 -27 -106 -27 -109 0 -9 109 -29 120 -22 20 12 9
34 -20 40 -35 8 -36 15 -15 100 20 84 19 95 -8 95 -21 0 -26 -10 -50 -104z"/>
<path d="M1156 748 c-3 -7 -7 -41 -10 -75 -3 -34 -8 -80 -12 -102 -6 -41 -6
-41 25 -41 29 0 31 2 31 39 0 58 16 58 30 1 11 -46 14 -50 41 -50 16 0 29 3
29 6 0 4 -9 33 -21 64 l-21 57 21 41 c26 51 26 58 1 65 -16 4 -26 -4 -46 -41
l-25 -47 5 48 c5 45 5 47 -20 47 -13 0 -26 -6 -28 -12z"/>
<path d="M1791 913 c-21 -17 -21 -20 -6 -62 25 -72 19 -79 -29 -32 -39 38 -46
42 -66 31 -25 -14 -25 -15 36 -127 44 -82 61 -96 82 -70 8 10 6 22 -8 45 -29
47 -25 50 15 12 44 -42 62 -32 46 26 -14 50 -8 53 18 8 20 -33 23 -35 42 -23
11 8 21 17 22 20 2 5 -124 189 -129 189 -1 0 -11 -8 -23 -17z"/>
<path d="M1621 821 c-10 -7 -12 -20 -7 -50 3 -23 4 -41 2 -41 -2 0 -14 16 -26
35 -18 29 -26 34 -44 29 -11 -4 -23 -8 -25 -10 -2 -1 18 -30 43 -63 26 -34 53
-78 60 -98 13 -39 31 -50 55 -34 12 8 12 16 -2 53 -10 26 -17 73 -17 116 0 73
-6 83 -39 63z"/>
<path d="M1449 773 c-51 -8 -58 -28 -43 -123 7 -47 13 -88 13 -92 2 -20 41
-27 95 -16 42 9 55 16 52 28 -2 8 -10 39 -16 67 -11 50 -13 53 -38 47 -42 -10
-44 -14 -28 -40 19 -28 21 -67 4 -62 -7 3 -18 27 -25 54 -19 81 -17 92 17 99
21 5 30 13 30 26 0 19 -6 20 -61 12z"/>
</g>
</svg>
